- 
http://www.Speed.Cd
 
http://www.Speed.Cd       the fast  and The Hottest Private Tracker on the net

Please Seed back to make the speed Faster!!
 ............ NFO .............
-(  ___  )|     /|(  ____ (  __   
| (   ) |(    / )| (    /| (    )
| (___) |  (_) / | (__    | |   ) |
|  ___  |  ) _ (  |  __)   | |   | |
| (   ) | / ( )  | (      | |   ) |
| )   ( |( /    )| (____/| (__/  )
|/     ||/     |(_______/(______/ 
  _    _    _    _    _    _    _    _  
 /   /   /   /   /   /   /   /  
( p )( r )( e )( s )( e )( n )( t )( s )
 _/  _/  _/  _/  _/  _/  _/  _/
 
Come.Out.And.Play.2012.DVDSCR.AC3-2.0.XviD-AXED

POSTER: 
[IMG]http://img62.imageshack.us/img62/4889/comeoutposter.jpg[/IMG]

IMDB:  
http://www.imdb.com/title/tt2341664

PLOT INFO:
Beth and Francis, a young married couple, are on holiday together when they venture to a beautiful, but highly remote, island. Beth is pregnant and the ...

MEDIAINFO:
General
Complete name                            : Come.Out.And.Play.2012.DVDSCR.AC3-2.0.XviD-AXED.avi
Format                                   : AVI
Format/Info                              : Audio Video Interleave
File size                                : 699 MiB
Duration                                 : 1h 26mn
Overall bit rate                         : 1 126 Kbps

Video
ID                                       : 0
Format                                   : MPEG-4 Visual
Format profile                           : Advanced Simple@L5
Format settings, BVOP                    : 2
Format settings, QPel                    : No
Format settings, GMC                     : No warppoints
Format settings, Matrix                  : Default (H.263)
Muxing mode                              : Packed bitstream
Codec ID                                 : XVID
Codec ID/Hint                            : XviD
Duration                                 : 1h 26mn
Bit rate                                 : 926 Kbps
Width                                    : 640 pixels
Height                                   : 272 pixels
Display aspect ratio                     : 2.35:1
Frame rate                               : 24.000 fps
Color space                              : YUV
Chroma subsampling                       : 4:2:0
Bit depth                                : 8 bits
Scan type                                : Progressive
Compression mode                         : Lossy
Bits/(Pixel*Frame)                       : 0.222
Stream size                              : 575 MiB (82%)
Writing library                          : XviD 64

Audio
ID                                       : 1
Format                                   : AC-3
Format/Info                              : Audio Coding 3
Mode extension                           : CM (complete main)
Format settings, Endianness              : Big
Codec ID                                 : 2000
Duration                                 : 1h 26mn
Bit rate mode                            : Constant
Bit rate                                 : 192 Kbps
Channel(s)                               : 2 channels
Channel positions                        : Front: L R
Sampling rate                            : 44.1 KHz
Bit depth                                : 16 bits
Compression mode                         : Lossy
Stream size                              : 119 MiB (17%)
Alignment                                : Aligned on interleaves
Interleave, duration                     : 70 ms (1.67 video frames)
Interleave, preload duration             : 208 ms
Title                                    : comeoutandplay - [1]




SOURCE: 
DVD Screener

NOTES: 
Hard coded English subs are included on non English speaking scenes. We decided to go with a 700 MB size on this one as opposed to the normal 1.3 GB due to the source, 2.0 audio, and the short run time of the film.  The extra bitrate would not have accomplished anything in this case aside from wasting unneeded space. Enjoy this remake of 'Who can kill a child'.

AXED! - We're still lurking, out there in the darkness

SCREENS:
[IMG]http://imageshack.us/a/img577/4408/scrncp00009c.png[/IMG]
[IMG]http://imageshack.us/a/img4/9197/scrncp00012.png[/IMG]
[IMG]http://imageshack.us/a/img541/9500/scrncp00016.png[/IMG]
[IMG]http://imageshack.us/a/img51/6504/scrncp00021.png[/IMG]
[IMG]http://imageshack.us/a/img717/7941/scrncp00025.png[/IMG]
